<?xml version="1.0" standalone="no"?>
<!DOCTYPE svg PUBLIC "-//W3C//DTD SVG 1.1//EN" "http://www.w3.org/Graphics/SVG/1.1/DTD/svg11.dtd" >
<svg xmlns="http://www.w3.org/2000/svg">
<metadata>Generated by IcoMoon</metadata>
<defs>
<font id="icomoon" horiz-adv-x="1024">
<font-face units-per-em="1024" ascent="1013.76" descent="-10.24" />
<missing-glyph horiz-adv-x="1024" />
<glyph unicode="&#x20;" d="" horiz-adv-x="512" />
<glyph unicode="&#xe600;" d="M926.72 87.040v645.12c0 50.688-41.472 92.16-92.16 92.16h-645.12c-50.688 0-92.16-41.472-92.16-92.16v-645.12c0-50.688 41.472-92.16 92.16-92.16h645.12c50.688 0 92.16 41.472 92.16 92.16v0zM350.72 340.48l115.2-138.24 161.28 207.36 207.36-276.48h-645.12l161.28 207.36z" />
<glyph unicode="&#xe601;" d="M512 460.8c114.048 0 207.36 93.312 207.36 207.36s-93.312 207.36-207.36 207.36c-114.048 0-207.36-93.312-207.36-207.36s93.312-207.36 207.36-207.36v0zM512 357.12c-139.968 0-414.72-67.392-414.72-207.36v-103.68h829.44v103.68c0 139.968-274.752 207.36-414.72 207.36v0z" />
<glyph unicode="&#xe602;" d="M687.158 915.911l-431.158-251.509v-508.502l431.158-246.026 431.158 246.026v505.76l-431.158 254.251zM997.206 637.322l-309.856-176.801-308.556 179.992 308.172 179.77 310.239-182.962zM726.352 27.279v360.458l313.57 178.93v-360.5l-313.57-178.888z" horiz-adv-x="1374" />
<glyph unicode="&#xe603;" d="M111.15-5.12h947.931l-473.966 829.44-473.966-829.44zM628.204 125.844h-86.176v87.31h86.176v-87.31zM628.204 300.463h-86.176v174.619h86.176v-174.619z" horiz-adv-x="1170" />
<glyph unicode="&#xe604;" d="M972.8 194.457v586.473c0 46.079-37.702 83.782-83.782 83.782h-586.473c-46.081 0-83.782-37.702-83.782-83.782v-586.473c0-46.081 37.702-83.782 83.782-83.782h586.473c46.079 0 83.782 37.702 83.782 83.782v0zM449.164 424.857l104.727-125.671 146.618 188.51 188.51-251.346h-586.473l146.618 188.51zM51.2 697.147v-670.254c0-46.081 37.702-83.782 83.782-83.782h670.254v83.782h-670.254v670.254h-83.782z" />
<glyph unicode="&#xe605;" d="M768 482.242v274.042l-257.541 153.938-254.459-152.293v-277.27l-256-137.564v-307.874l261.791-148.999 250.209 144.749 250.209-144.749 261.791 148.999v306.209l-256 140.813zM719.251 480.679l-184.378-101.729v211.478l184.378 108.313v-218.063zM510.376 852.329l182.289-110.77-182.081-107.042-178.208 108.959 178 108.856zM76.376 328.64l203.874 107.958 180.791-103.126-199.166-113.836-185.501 109.002zM286.166 175.597l201.459 115.063v-215.688l-201.459-117.668v218.291zM564 335.41l181.208 101.98 203.456-110.689-186.332-107.060-198.334 115.769zM975.251 65.641l-188.624-108.336v218.291l188.624 108.291v-218.246z" />
<glyph unicode="&#xe606;" d="M921.97 90.736v637.73c0 50.108-40.997 91.103-91.104 91.103h-637.729c-50.108 0-91.103-40.997-91.103-91.103v-637.73c0-50.108 40.997-91.103 91.103-91.103h637.729c50.108 0 91.104 40.997 91.104 91.103zM266.018 246.458v327.13h372.446v-145.13l160.516 145.13v-327.976l-160.516 136.928v-136.928l-372.446 0.846z" />
<glyph unicode="&#xe607;" d="M223.7 893.25v-764.941l192.112 200.544 145.552-300.504 100.342 44.357-151.871 293.317 290.466-17.453-576.6 544.679z" />
<glyph unicode="&#xe608;" d="M102.4 121.6v576h645.12v-253.44l276.48 253.44v-576l-276.48 241.92v-241.92h-645.12z" />
<glyph unicode="&#xe609;" d="M812.466 145.787l5.426 26.826c2.054-0.241 4.144-0.364 6.263-0.364 29.983 0 54.288 24.852 54.288 55.508 0 25.094-16.286 46.299-38.641 53.168l6.142 30.361c1.761-0.176 3.548-0.266 5.354-0.266 29.983 0 54.288 24.852 54.288 55.507 0 24.766-15.863 45.744-37.769 52.891v0l2.799 13.836 0.463 16.821c34.568 3.206 61.651 32.918 61.651 69.098 0 34.847-25.124 63.694-57.862 68.637l0.021 0.748h-283.236l-10.786-2.401c0 10.431 0 19.871 0 27.627 0 29.639 23.574 52.006 35.961 86.204s19.223 74.537-3.934 156.368c-23.158 81.832-74.262 67.131-102.294 57.937s-2.747-106.896-28.339-139.768c-25.591-32.873-107.236-145.718-200.984-228.797l1.597-25.906-1.597-0.356v-442.434c0-22.868 18.454-41.237 41.217-41.237h467.72l0.656 3.239c0.237-0.003 0.474-0.006 0.712-0.006 29.983 0 54.288 24.852 54.288 55.507 0 23.090-13.788 42.886-33.404 51.252zM91.27 505.292h135.719v-499.568h-135.719v499.568z" />
<glyph unicode="&#xe60a;" d="M537.873 78.489l122.226 145.91 112.391-116.77 101.953 106.234 2.501 580.448h-717.653v-709.933l378.584-5.89zM254.409 717.060h517.897v-87.12h-517.897v87.12zM382.99 549.614c16.023 0 30.483-2.306 43.381-6.914s23.914-10.997 33.046-19.164c9.133-8.167 16.142-17.749 21.029-28.744s7.33-22.883 7.33-35.659c0-11.159-1.242-20.983-3.726-29.473s-6.088-15.889-10.814-22.196c-4.727-6.307-10.494-11.643-17.304-16.010s-14.54-8.004-23.193-10.916c20.83-6.63 36.371-16.738 46.626-30.322s15.382-30.646 15.382-51.184c0-17.466-3.204-32.909-9.614-46.332s-15.062-24.702-25.957-33.84c-10.894-9.137-23.513-16.051-37.853-20.74s-29.522-7.034-45.546-7.034c-17.464 0-32.686 2.021-45.664 6.064s-24.274 10.027-33.888 17.951c-9.614 7.924-17.786 17.627-24.514 29.11s-12.497 24.743-17.304 39.783l26.197 10.916c4.487 1.94 9.053 2.911 13.699 2.911 4.166 0 7.891-0.889 11.176-2.668s5.809-4.367 7.571-7.763c2.884-5.66 6.049-11.239 9.493-16.738s7.571-10.39 12.378-14.676c4.807-4.286 10.454-7.763 16.943-10.431s14.22-4.002 23.193-4.002c10.094 0 18.906 1.658 26.438 4.972s13.82 7.641 18.867 12.978c5.047 5.337 8.813 11.28 11.296 17.829s3.724 13.14 3.724 19.77c0 8.41-0.881 16.051-2.643 22.924s-5.448 12.736-11.056 17.587c-5.608 4.852-13.659 8.652-24.154 11.401s-24.556 4.124-42.179 4.124v42.693c14.581 0.162 26.678 1.536 36.291 4.124s17.264 6.186 22.953 10.796c5.688 4.609 9.653 10.147 11.897 16.617s3.366 13.584 3.366 21.347c0 16.657-4.487 29.23-13.459 37.721s-21.23 12.736-36.771 12.736c-14.1 0-25.797-3.76-35.089-11.28s-15.782-17.183-19.467-28.988c-1.922-6.144-4.567-10.553-7.931-13.22s-7.771-4.002-13.218-4.002c-2.563 0-5.288 0.243-8.171 0.728l-31.243 5.579c2.403 16.819 7.050 31.576 13.939 44.27s15.502 23.288 25.836 31.777c10.336 8.491 22.191 14.878 35.57 19.164s27.759 6.429 43.141 6.429zM564.493 316.63h65.278v155.507c0 6.026 0.223 12.36 0.669 19l-46.341-32.098c-1.93-1.353-3.899-2.276-5.904-2.767s-3.974-0.738-5.904-0.738c-2.971 0-5.681 0.523-8.132 1.568s-4.27 2.246-5.458 3.597l-17.378 19.738 98.251 69.176h45.227v-232.986h57.926v-34.127h-178.234v34.127zM603.704 88.074l173.728-176.963 303.456 300.781-69.036 53.897-238.212-233.328-115.384 106.83-54.552-51.217z" />
<glyph unicode="&#xe60b;" d="M277.836 379.445l10.832 10.832 12.054-12.054 50.004 50.005 24.208-24.208-50.004-50.005 9.387-9.387-10.832-10.832 51.449-51.449-24.208-24.208-51.449 51.449-10.827-10.827-9.387 9.387-50.068-50.068-24.208 24.208 50.068 50.068-12.054 12.054 10.827 10.827-48.84 48.84 24.208 24.208 48.84-48.84zM471.259-43.732c107.493 50.985-7.314 228.467 62.765 298.546l174.884 174.884c80.523 80.523 223.721-38.564 301.545 52.541s-191.655 286.6-246.5 323.809c-54.845 37.211-137.514 94.692-237.818 43.519s-113.457-133.286-191.385-211.216c-76.358-76.358-187.186-76.664-222.315-181.944s26.374-193.096 56.593-245.284c30.22-52.188 194.737-305.842 302.23-254.857zM533.418 643.948h64.558v-67.813h-64.558v67.813zM533.418 755.989h64.558v-64.865h-64.558v64.865zM656.665 643.948h64.558v-67.813h-64.558v67.813zM656.665 755.989h58.689v-64.865h-58.689v64.865z" horiz-adv-x="1126" />
<glyph unicode="&#xe60c;" d="M366.637 286.48c-5.274 31.164-8.586 63.743-9.719 97.2v0h135.642v-97.2h-125.923zM371.542 260.56h121.018v-230.505c-0.391 0.27-0.787 0.546-1.189 0.83-19.542 13.775-40.704 37.605-60.208 70.11-26.375 43.959-46.839 98.6-59.62 159.565zM657.363 286.48h-112.963v97.2h122.682c-1.133-33.457-4.445-66.036-9.719-97.2zM652.458 260.56c-12.783-60.964-33.246-115.607-59.62-159.566-15.643-26.071-32.352-46.561-48.437-60.758v220.324h108.058zM200.96 279.771c-13.532 32.383-22.155 67.33-24.938 103.909v0h129.016c1.038-33.643 4.080-66.2 8.892-97.2h-112.971v-6.709zM209.709 260.56h108.724c11.711-60.798 30.377-114.687 54.047-157.768-70.759 32.229-128.414 88.216-162.771 157.768zM823.040 279.771v6.709h-112.971c4.812 31 7.854 63.557 8.892 97.2h129.016c-2.782-36.579-11.406-71.525-24.938-103.909zM814.291 260.56c-34.357-69.552-92.012-125.54-162.771-157.768 23.671 43.081 42.336 96.971 54.047 157.768h108.724zM368.958 545.68h123.602v-110.16h-135.642c1.291 38.123 5.412 75.109 12.041 110.16zM374.396 571.6c12.88 55.753 32.275 105.785 56.767 146.606 19.504 32.506 40.666 56.335 60.208 70.11 11.288 7.958 17.524 10.084 20.629 10.084s9.341-2.127 20.629-10.084c1.297-0.914 2.602-1.873 3.912-2.875v0h-43.981v-213.84h-118.164zM655.042 545.68c6.629-35.051 10.75-72.037 12.041-110.16v0h-122.682v110.16h110.642zM649.604 571.6h-105.204v207.364c16.085-14.197 32.794-34.687 48.437-60.758 24.492-40.82 43.886-90.853 56.767-146.606zM203.647 545.68h112.414c-6.048-34.843-9.84-71.795-11.022-110.16h-129.016c2.963 38.945 12.545 76.039 27.625 110.16zM216.466 571.6c34.905 63.541 89.706 114.607 156.014 144.808v0c-21.974-39.994-39.636-89.305-51.423-144.808h-104.592zM820.353 545.68c15.079-34.122 24.663-71.215 27.625-110.16v0h-129.016c-1.183 38.365-4.973 75.318-11.022 110.16h112.414zM807.534 571.6h-104.592c-11.788 55.505-29.448 104.814-51.423 144.808v0c66.308-30.201 121.109-81.268 156.014-144.808zM926.72 409.6c0 229.044-185.676 414.72-414.72 414.72s-414.72-185.676-414.72-414.72c0-229.044 185.676-414.72 414.72-414.72s414.72 185.676 414.72 414.72z" />
<glyph unicode="&#xe60d;" d="M192.085 449.344v0c1.798-4.144 2.776-8.603 2.776-13.248 0-21.95-21.844-39.744-48.791-39.744s-48.791 17.794-48.791 39.744c0 4.645 0.978 9.104 2.776 13.248h-1.865l67.532 222.818c2.619 8.641 12.139 15.646 21.024 15.646h626.109c8.993 0 19.042-6.88 22.267-14.917l89.689-223.547h-0.869c1.798-4.144 2.776-8.603 2.776-13.248 0-21.95-21.844-39.744-48.79-39.744s-48.791 17.794-48.791 39.744c0 4.645 0.978 9.104 2.776 13.248h-39.706c1.798-4.144 2.776-8.603 2.776-13.248 0-21.95-21.844-39.744-48.79-39.744s-48.791 17.794-48.791 39.744c0 4.645 0.978 9.104 2.776 13.248h-29.948c1.798-4.144 2.776-8.603 2.776-13.248 0-21.95-21.844-39.744-48.791-39.744s-48.791 17.794-48.791 39.744c0 4.645 0.978 9.104 2.776 13.248h-20.189c1.798-4.144 2.776-8.603 2.776-13.248 0-21.95-21.844-39.744-48.791-39.744s-48.791 17.794-48.791 39.744c0 4.645 0.978 9.104 2.776 13.248h-29.948c1.798-4.144 2.776-8.603 2.776-13.248 0-21.95-21.844-39.744-48.791-39.744s-48.791 17.794-48.791 39.744c0 4.645 0.978 9.104 2.776 13.248h-29.948c1.798-4.144 2.776-8.603 2.776-13.248 0-21.95-21.844-39.744-48.791-39.744s-48.791 17.794-48.791 39.744c0 4.645 0.978 9.104 2.776 13.248h-29.948zM170.466 790.944v-73.791c0-9.142 7.29-16.096 16.282-16.096h626.109c8.885 0 16.282 7.206 16.282 16.096v73.791c0 9.142-7.29 16.096-16.282 16.096h-626.109c-8.885 0-16.282-7.206-16.282-16.096zM175.345 396.352v-384.192h670.87v384.192h-670.87zM248.531 396.352h524.498v-145.728h-524.498v145.728z" />
<glyph unicode="&#xe60e;" d="M265.612 807.040c0-364.64 172.278-458.314 196.463-580.4h99.844c24.191 122.086 196.465 215.759 196.465 580.4h-492.773zM346.235 746.265h60.497c0.385-134.675 27.034-280.062 94.188-401.296-83.836 101.148-147.389 228.41-154.685 401.296v0zM663.733 63.518v-51.358h-303.465v51.359c78.59 0 99.318 68.902 102.772 114.887h97.92c3.451-45.986 21.916-114.887 102.772-114.887v0zM806.37 245.413c-48.466 22.895-90.164 6.891-115.916-10.585 25.753 17.479 55.403 52.874 55.108 108.447-89.555-37.474-79.331-90.117-95.551-120.775-10.915-20.632-34.808-9.912-34.808-9.912l-7.354-12.71c35.305-19.471 140.542-20.283 198.522 45.535v0zM890.863 390.659c-47.754-3.492-73.202-38.309-86.459-63.652 13.257 25.342 21.237 70.151-1.715 114.043-55.631-69.653-26.011-106.798-26.33-138.323-0.153-15.409-16.929-15.060-16.929-15.060l0.236-14.603c10.851 1.472 109.013 25.876 131.199 117.594v0zM926.637 530.402c-40.487-15.386-53.905-53.171-59.368-78.532 5.462 25.361 1.393 67.263-28.869 99.297-31.615-74.672 2.816-99.132 10.020-126.497 3.517-13.37-11.236-21.899-11.236-21.899l10-6.443c2.166 1.041 82.465 48.1 79.453 134.074v0zM919.754 667.363c-31.208-24.046-35.132-60.981-33.676-84.327-1.457 23.346-13.633 59.189-47.56 78.801-9.114-72.867 26.566-84.83 39.447-106.538 6.291-10.615 0.801-23.769 0.801-23.769l9.813 0.669c0 0 0.916 4.581 5.843 15.95 10.070 23.27 43.409 48.2 25.334 119.214v0zM854.034 765.87c0 0-9.45-35.826-1.556-62.837 8.431-28.825 30.168-49.162 30.168-49.162s11.74 31.521 3.418 62.568c-7.673 28.628-32.030 49.431-32.030 49.431v0zM416.152 199.878l-7.354 12.71c0 0-23.892-10.721-34.808 9.912-16.22 30.658-5.998 83.301-95.551 120.776-0.294-55.573 29.354-90.968 55.108-108.447-25.754 17.479-67.45 33.482-115.916 10.585 57.978-65.818 163.215-65.006 198.522-45.535v0zM264.332 273.065l0.236 14.603c0 0-16.776-0.349-16.929 15.060-0.32 31.524 29.3 68.67-26.33 138.323-22.951-43.892-14.972-88.7-1.715-114.043-13.257 25.342-38.708 60.16-86.459 63.652 22.188-91.718 120.35-116.122 131.199-117.594v0zM176.817 396.327l10 6.444c0 0-14.753 8.528-11.236 21.899 7.201 27.364 41.635 51.825 10.020 126.497-30.262-32.036-34.331-73.936-28.869-99.297-5.462 25.361-18.88 63.146-59.368 78.532-3.014-85.972 77.286-133.031 79.453-134.074v0zM129.576 548.15c4.927-11.368 5.843-15.95 5.843-15.95l9.813-0.669c0 0-5.49 13.154 0.801 23.769 12.878 21.704 48.56 33.67 39.447 106.538-33.927-19.612-46.102-55.456-47.56-78.801 1.457 23.346-2.468 60.281-33.676 84.327-18.073-71.016 15.266-95.946 25.334-119.214v0zM137.93 716.44c-8.32-31.047 3.418-62.568 3.418-62.568s21.736 20.336 30.168 49.162c7.894 27.010-1.556 62.837-1.556 62.837s-24.356-20.803-32.030-49.431v0z" />
<glyph unicode="&#xe60f;" d="M658.371 308.011v-82.647c0-26.708-21.995-48.361-48.812-48.361h-243.901l-158.85-113.643v113.643h-60.718c-26.958 0-48.812 21.85-48.812 48.361v427.308c0 26.708 21.996 48.361 48.812 48.361h146.351v-344.661c0-26.51 21.854-48.361 48.812-48.361h317.118zM853.394 334.211h24.448c27.172 0 48.879 21.651 48.879 48.361v427.308c0 26.51-21.884 48.361-48.879 48.361h-512.126c-27.172 0-48.879-21.651-48.879-48.361v-427.308c0-26.51 21.884-48.361 48.879-48.361h305.074l182.604-130.638v130.638z" />
<glyph unicode="&#xe610;" d="M164.91 633.225l326.326-178.697v-408.448l-326.326 178.697v408.448zM870.196 633.225l-326.327-178.697v-408.448l326.327 178.697v408.448zM511.145 519.395l363.735 191.515-367.105 164.61-358.655-177.53 362.025-178.596z" />
<glyph unicode="&#xe611;" d="M716.126 342.342h-256.356c-7.039 19.803-18.070 37.731-32.131 52.827l93.111 148.073-58.127 35.567-91.351-145.273c-17.441 6.841-36.444 10.599-56.33 10.599-84.812 0-153.564-68.362-153.564-152.693s68.754-152.693 153.564-152.693c79.043 0 144.14 59.381 152.627 135.727h240.753c8.488-76.346 73.584-135.727 152.627-135.727 84.812 0 153.564 68.362 153.564 152.693s-68.754 152.693-153.564 152.693c-17.767 0-34.827-3-50.701-8.518l-90.042 143.192-58.127-35.567 90.381-143.731c-16.076-15.954-28.612-35.433-36.339-57.171v0zM587.949 579.864c84.812 0 153.564 68.362 153.564 152.693s-68.754 152.692-153.564 152.692c-84.811 0-153.564-68.362-153.564-152.692s68.754-152.693 153.564-152.693z" horiz-adv-x="1119" />
<glyph unicode="&#xe612;" d="M187.801 885.248v-746.496h995.328v746.496h-995.328zM218.907 854.144h933.12v-684.288h-933.12v684.288zM281.113 760.832h808.704v-342.144h-808.704v342.144zM281.113 356.48h808.704v-93.312h-808.704v93.312z" horiz-adv-x="1314" />
<glyph unicode="&#xe613;" d="M152.997 184.791c0-12.745 10.554-23.076 22.765-23.076h839.402c12.572 0 22.765 10.256 22.765 22.957v42.682l-91.544 134.522v454.227c0 25.504-20.624 46.181-46.049 46.181h-609.741c-25.432 0-46.049-20.865-46.049-46.181v-454.227l-91.544-123.252v-53.834zM305.571 772.248c0 12.878 10.064 23.316 22.728 23.316h534.325c12.552 0 22.728-10.292 22.728-23.316v-387.052c0-12.878-10.064-23.316-22.728-23.316h-534.325c-12.552 0-22.728 10.292-22.728 23.316v387.052zM763.294 742.433c0 12.761 10.173 23.107 22.669 23.107h37.623c12.52 0 22.67-10.656 22.67-23.107v-323.177c0-12.761-10.173-23.107-22.67-23.107h-37.623c-12.52 0-22.669 10.656-22.669 23.107v323.177z" horiz-adv-x="1139" />
<glyph unicode="&#xe614;" d="M85.401 885.248v-746.496h995.327v746.496h-995.327zM116.507 854.144h933.12v-684.288h-933.12v684.288zM178.713 760.832v-342.144h342.144v342.144h-342.144zM178.713 356.48v-93.312h342.144v93.312h-342.144zM551.962 760.832v-342.144h342.144v342.144h-342.144zM551.962 356.48v-93.312h342.144v93.312h-342.144zM863.001 760.832h186.624v-342.144h-186.624v342.144zM863.001 356.48h186.624v-93.312h-186.624v93.312z" horiz-adv-x="1109" />
<glyph unicode="&#xe615;" d="M56.714 867.401v-710.804c0-32.662 26.997-59.319 60.301-59.319h363.24c33.251 0 60.301 26.557 60.301 59.319v710.804c0 32.66-26.997 59.319-60.3 59.319h-363.24c-33.251 0-60.301-26.557-60.301-59.319zM97.034 828.038c0 21.78 18.108 39.436 40.134 39.436h322.931c22.166 0 40.136-17.778 40.136-39.436v-515.16c0-21.78-18.108-39.436-40.136-39.436h-322.931c-22.166 0-40.134 17.778-40.134 39.436v515.16zM298.634 146.434v0c-20.556 0-37.219 17.733-37.219 39.604s16.663 39.604 37.219 39.604c20.556 0 37.219-17.733 37.219-39.604s-16.663-39.604-37.219-39.604zM201.467 820.078h194.333c19.821 0 35.888-17.656 35.888-39.873v-240.182c0-22.020-16.246-39.873-35.888-39.873h-194.333c-19.821 0-35.888 17.656-35.888 39.873v240.182c0 22.020 16.246 39.873 35.888 39.873z" horiz-adv-x="597" />
<glyph unicode="&#xe616;" d="M829.64 1012.638h17.054c56.846-5.673 105.164-28.363 139.273-76.581 19.896-25.527 31.266-56.727 34.108-87.926 2.842-45.382-5.686-87.927-36.949-124.799-25.581-31.2-56.846-48.218-93.796-53.89s-73.9 2.836-105.166 25.527c-28.423 19.854-45.477 48.218-51.162 85.090-2.842 25.527 0 51.054 14.212 73.744 8.527 14.182 25.581 17.018 39.792 8.509 8.527-8.509 11.369-19.854 5.684-31.2s-8.527-22.691-8.527-34.036c0-28.363 11.369-48.218 36.949-62.399 48.319-28.363 110.849-8.509 136.431 45.381 28.423 62.399 2.842 138.981-62.531 170.181-25.581 11.346-54.004 19.854-82.427 17.018-59.688-2.836-105.166-34.036-136.431-85.090-19.896-34.036-28.423-68.073-34.108-104.946-5.684-53.891 5.686-104.944 34.108-153.162 19.896-39.709 48.319-70.909 82.427-99.273 22.738-19.854 45.477-36.873 73.9-53.89 11.369-8.509 17.054-22.691 8.527-34.036s-22.738-17.018-34.108-8.509c-68.214 39.709-122.219 90.763-164.854 158.836-22.738 36.873-36.951 73.744-45.477 113.454-2.842 25.527-5.686 48.218-2.842 70.909 2.842 45.381 17.054 90.763 36.949 130.473 34.108 59.563 82.427 96.436 150.642 113.453 11.369 2.836 22.738 2.836 34.108 2.836h2.842c2.842-5.673 5.684-5.673 11.369-5.673v0zM443.084 451.043c88.112-48.218 176.223-93.599 264.336-136.144 11.369-5.673 25.581-11.346 36.949-17.018 8.527-2.836 17.054-2.836 25.581 2.836s11.369 14.182 8.527 25.527c0 8.509-8.527 14.182-17.054 19.854-85.269 39.709-164.854 82.254-247.281 124.799-17.054 8.509-34.108 19.854-51.162 28.363s-36.949-2.836-36.949-22.691c0-11.346 5.686-19.854 17.054-25.527v0zM480.034 538.969c39.792-25.527 82.427-53.89 122.219-79.418 54.004-34.036 108.008-68.073 164.854-99.271 5.686-2.836 11.369-5.673 19.896-2.836 11.369 2.836 17.054 11.346 19.896 19.854 0 11.346-2.842 19.854-14.212 25.527-76.742 45.381-150.642 90.763-224.542 136.144-19.896 14.182-39.792 25.527-62.531 39.709-8.527 5.673-17.054 5.673-25.581 0-8.527-2.836-11.369-11.346-14.212-19.854 2.842-8.509 5.686-14.182 14.212-19.854v0zM738.686 278.026c-85.269 34.036-173.381 68.073-255.808 104.944-17.054 8.509-36.951 17.018-54.004 25.527-8.527 2.836-19.896 2.836-28.423-2.836s-11.369-17.018-8.527-25.527c2.842-8.509 8.527-14.182 17.054-19.854 79.584-36.873 159.169-70.909 238.754-102.109 25.581-8.509 48.319-19.854 71.058-28.363 17.054-5.673 34.108 5.673 34.108 22.69 5.684 11.346 0 19.854-14.212 25.527v0zM724.474 209.954c-31.264 8.509-62.531 19.856-93.796 28.363-76.742 22.691-150.642 48.218-224.542 76.581-5.686 2.836-11.369 2.836-17.054 0-11.369-2.836-19.896-11.346-19.896-25.527 0-11.346 5.686-19.854 17.054-25.527 85.269-31.2 173.381-59.563 261.492-85.090 19.896-5.673 42.634-14.182 65.373-19.854 17.054-2.836 31.264 8.509 31.264 25.527-2.842 14.182-8.527 22.691-19.896 25.527v0zM710.262 144.718c-54.004 11.346-105.166 22.691-159.169 36.871-56.846 14.182-113.692 28.363-167.696 42.546-11.369 2.836-19.896 0-25.581-8.509-11.369-14.182-5.684-36.873 14.212-42.544 108.008-28.363 218.858-56.727 329.708-79.418 17.054-2.836 31.266 8.509 31.266 25.527-2.842 11.346-8.527 22.691-22.738 25.527v0zM337.92 102.173c0-11.344 5.684-25.527 19.896-25.527 14.212-2.836 31.266-5.673 45.477-8.509 28.423-2.836 54.004-8.509 79.586-14.182 22.738-2.836 45.477-8.509 71.058-11.346s51.162-8.509 76.742-11.344c22.738-2.836 45.477-5.673 65.373-8.509 14.212 0 25.581 8.509 28.423 19.854 2.842 14.182-5.684 28.363-19.896 28.363-8.527 0-14.212 2.836-19.896 2.836-19.896 2.836-39.792 5.673-62.531 8.509-25.581 2.836-48.319 8.509-73.9 11.346s-51.162 8.509-76.742 11.346c-28.423 2.836-54.004 8.509-82.427 14.182-8.527 0-14.212 2.836-19.896 2.836-17.054 5.673-28.423-5.673-31.266-19.854v0z" horiz-adv-x="1229" />
<glyph unicode="&#xe617;" d="M72.802 164.683c0-14.321 11.922-25.931 26.204-25.931h890.534c14.472 0 26.204 11.55 26.204 26.044v43.898l-97.546 143.342v481.114c0 28.773-23.202 52.097-51.994 52.097h-643.864c-28.716 0-51.994-23.599-51.994-52.097v-481.114l-97.546-131.332v-56.022zM235.378 787.983c0 14.453 11.79 26.169 25.759 26.169h566.271c14.226 0 25.76-11.424 25.76-26.169v-409.777c0-14.453-11.789-26.169-25.76-26.169h-566.271c-14.226 0-25.76 11.424-25.76 26.169v409.777zM397.953 747.369c0 14.307 11.834 25.906 25.97 25.906h240.698c14.342 0 25.97-11.966 25.97-25.906v-333.879c0-14.307-11.834-25.904-25.97-25.904h-240.698c-14.342 0-25.97 11.966-25.97 25.904v333.879z" horiz-adv-x="1088" />
<glyph unicode="&#xe618;" d="M620.496 757.442c-194.008 0-360.858-124.963-426.82-302.331 65.963-177.368 232.81-302.331 426.82-302.331s360.858 124.963 426.821 302.331c-65.963 177.368-232.81 302.331-426.821 302.331v0zM620.496 253.557c-108.644 0-194.008 88.683-194.008 201.554s85.363 201.554 194.008 201.554c108.646 0 194.009-88.683 194.009-201.554s-85.364-201.554-194.009-201.554v0zM620.496 576.043c-65.963 0-116.406-52.404-116.406-120.932s50.442-120.932 116.406-120.932c65.963 0 116.406 52.404 116.406 120.932s-50.443 120.932-116.406 120.932v0z" horiz-adv-x="1190" />
<glyph unicode="&#xe619;" d="M716.887 801.528l-405.339-446.701 94.579-104.23 310.761 342.472 310.761-342.472 94.58 104.23-405.339 446.701z" horiz-adv-x="1434" />
<glyph unicode="&#xe61a;" d="M565.271 682.731c114.374 0 204.24-91.049 204.24-206.927 0-24.831-4.086-53.801-16.34-74.496l118.459-120.018c61.271 53.801 110.29 120.018 138.884 194.511-69.441 182.096-245.088 310.39-449.329 310.39-57.187 0-110.29-12.416-163.392-28.97l89.866-91.048c24.51 12.416 53.103 16.556 77.611 16.556v0zM156.79 794.471l110.29-111.741c-69.441-53.801-122.544-124.156-151.138-206.927 69.441-182.093 245.088-310.391 449.329-310.391 61.271 0 122.544 12.416 179.731 33.109l134.798-136.571 53.103 53.801-723.010 732.523-53.102-53.801zM381.453 566.852l61.271-62.078v-28.97c0-70.356 53.103-124.156 122.544-124.156 8.17 0 16.34 0 28.593 4.138l61.271-62.078c-28.593-16.554-57.187-24.831-89.866-24.831-114.374 0-204.24 91.048-204.24 206.927 0 33.109 8.17 62.078 20.424 91.048v0zM557.101 599.96l126.629-128.296v8.277c0 70.356-53.103 124.156-122.544 124.156 0-4.14 0-4.14-4.086-4.14v0z" horiz-adv-x="1119" />
<glyph unicode="&#xe61b;" d="M611.914 636.416h-36.053v71.096c0 99.533-79.315 177.737-180.262 177.737s-180.262-78.204-180.262-177.737v-71.096h-36.053c-39.658 0-72.104-31.992-72.104-71.096v-355.474c0-39.102 32.447-71.096 72.104-71.096h432.629c39.658 0 72.104 31.992 72.104 71.096v355.474c0 39.102-32.447 71.096-72.104 71.096v0zM395.599 817.708c61.289 0 111.762-49.766 111.762-110.197v-71.096h-219.92v71.096h-3.605c0 60.43 50.473 110.197 111.762 110.197v0zM611.914 209.847h-432.629v355.474h432.629v-355.474zM395.599 316.489c39.658 0 72.104 31.992 72.104 71.096s-32.447 71.096-72.104 71.096c-39.658 0-72.104-31.992-72.104-71.096s32.447-71.096 72.104-71.096v0z" horiz-adv-x="791" />
<glyph unicode="&#xe61c;" d="M368.153 414.474l195.047 195.047 195.047-195.047h-390.093z" horiz-adv-x="1126" />
<glyph unicode="&#xe61d;" d="M578.252 606.874l189.748-189.748 189.748 189.748h-379.498z" horiz-adv-x="1536" />
<glyph unicode="&#xe61e;" d="M756.888 358.4c0-135.248-109.639-244.888-244.888-244.888s-244.888 109.639-244.888 244.888c0 135.248 109.639 244.888 244.888 244.888s244.888-109.639 244.888-244.888z" />
<glyph unicode="&#xe61f;" d="M586.65 782.848l107.309-107.309-135.302-135.302 65.318-65.318 135.302 135.302 107.309-107.309v279.936h-279.936zM418.688 782.848h-279.936v-279.936l107.309 107.309 219.283-219.283v-354.586h93.312v391.91l-247.277 247.277 107.309 107.309z" />
<glyph unicode="&#xe620;" d="M453.214 527.173l-218.35 218.35-58.786-58.786 218.35-218.35 58.786 58.786zM616.976 745.523l83.981-83.981-524.88-529.079 58.786-58.786 529.079 524.88 83.981-83.981v230.947h-230.947zM629.573 350.814l-58.786-58.786 130.171-130.171-83.981-83.981h230.947v230.947l-83.981-83.981-134.369 125.971z" />
<glyph unicode="&#xe621;" d="M778.47 321.074c0 11.198 3.732 22.396 3.732 37.326s0 26.127-3.732 37.324l78.382 63.452c7.466 7.464 7.466 14.93 3.732 22.394l-74.65 130.637c-3.732 3.732-11.198 7.466-22.394 3.732l-93.312-37.324c-18.662 14.93-41.057 26.127-63.452 37.324l-14.93 97.044c3.732 11.198-7.466 18.662-14.93 18.662h-149.299c-7.466 0-18.662-7.466-18.662-14.93l-14.93-100.777c-22.396-7.466-41.057-22.396-63.452-37.324l-89.58 37.324c-11.198 3.732-18.662 0-26.127-7.466l-74.65-130.637c-3.732-3.732 0-14.93 7.464-22.394l78.382-59.72c0-11.198-3.732-22.394-3.732-37.324s0-26.127 3.732-37.326l-78.382-63.452c-7.464-7.466-7.464-14.93-3.732-22.394l74.65-130.637c3.732-3.732 11.198-7.466 22.396-3.732l93.312 37.324c18.662-14.93 41.057-26.127 63.452-37.324l14.93-97.044c0-7.466 7.466-14.93 18.662-14.93h149.299c7.466 0 18.662 7.464 18.662 14.93l14.93 97.044c22.394 11.198 44.789 22.394 63.452 37.324l93.312-37.324c7.466-3.732 18.662 0 22.394 7.464l74.65 130.637c3.732 7.464 3.732 18.662-3.732 22.394l-85.847 59.72zM502.267 227.763c-70.917 0-130.637 59.719-130.637 130.637s59.72 130.637 130.637 130.637c70.917 0 130.637-59.72 130.637-130.637s-59.72-130.637-130.637-130.637v0z" />
<glyph unicode="&#xe622;" d="M176.077 670.874h74.65v74.65c-41.057 0-74.65-33.592-74.65-74.65v0zM176.077 372.275h74.65v74.65h-74.65v-74.65zM325.376 73.677h74.65v74.65h-74.65v-74.65zM176.077 521.574h74.65v74.65h-74.65v-74.65zM549.325 745.523h-74.65v-74.65h74.65v74.65zM773.274 745.523v-74.65h74.65c0 41.057-33.592 74.65-74.65 74.65v0zM250.726 73.677v74.65h-74.65c0-41.057 33.592-74.65 74.65-74.65v0zM176.077 222.976h74.65v74.65h-74.65v-74.65zM400.026 745.523h-74.65v-74.65h74.65v74.65zM474.675 73.677h74.65v74.65h-74.65v-74.65zM773.274 372.275h74.65v74.65h-74.65v-74.65zM773.274 73.677c41.057 0 74.65 33.593 74.65 74.65h-74.65v-74.65zM773.274 521.574h74.65v74.65h-74.65v-74.65zM773.274 222.976h74.65v74.65h-74.65v-74.65zM623.974 73.677h74.65v74.65h-74.65v-74.65zM623.974 670.874h74.65v74.65h-74.65v-74.65zM325.376 222.976h373.248v373.248h-373.248v-373.248zM400.026 521.574h223.949v-223.949h-223.949v223.949z" />
<glyph unicode="&#xe623;" d="M512 824.32c-228.096 0-414.72-186.624-414.72-414.72s186.624-414.72 414.72-414.72c228.096 0 414.72 186.624 414.72 414.72s-186.624 414.72-414.72 414.72v0zM512 77.824c-182.477 0-331.776 149.299-331.776 331.776s149.299 331.776 331.776 331.776c182.477 0 331.776-149.299 331.776-331.776s-149.299-331.776-331.776-331.776zM532.736 616.96h-62.208v-248.832l215.654-132.71 33.178 53.914-186.624 111.974v215.654z" />
<glyph unicode="&#xe624;" d="M400.676 686.080v184.32l-225.391-230.4 225.391-230.4v184.32c148.758 0 270.47-124.416 270.47-276.48s-121.712-276.48-270.47-276.48c-148.758 0-270.47 124.416-270.47 276.48h-90.157c0-202.752 162.282-368.64 360.626-368.64s360.626 165.888 360.626 368.64c0 202.752-162.282 368.64-360.626 368.64v0z" horiz-adv-x="801" />
<glyph unicode="&#xe625;" d="M372.364 776.276v139.636l-186.182-186.182 186.182-186.182v139.636c153.6 0 279.273-125.673 279.273-279.273 0-46.544-13.964-93.091-32.582-130.327l69.818-69.818c32.582 60.509 55.854 125.673 55.854 200.144 0 204.8-167.564 372.364-372.364 372.364v0zM372.364 124.638c-153.6 0-279.273 125.673-279.273 279.273 0 46.546 13.964 93.091 32.582 130.327l-69.818 69.818c-32.582-60.509-55.854-125.673-55.854-200.144 0-204.8 167.564-372.364 372.364-372.364v-139.636l186.182 186.182-186.182 186.182v-139.636z" horiz-adv-x="745" />
<glyph unicode="&#xe626;" d="M16.556 392.533c0-114.048 46.656-217.729 124.416-290.304l-124.416-124.416h311.040v311.040l-114.048-114.048c-57.024 51.84-93.312 129.6-93.312 217.729 0 134.786 88.127 248.832 207.36 295.489v103.68c-176.256-46.656-311.040-207.36-311.040-399.168v0zM431.277 133.333h103.68v103.68h-103.68v-103.68zM949.678 807.253h-311.040v-311.040l114.048 114.048c57.024-51.84 93.312-129.6 93.312-217.729 0-134.782-88.129-248.832-207.36-295.489v-108.864c176.256 46.656 311.040 207.36 311.040 399.168 0 114.048-46.656 217.729-124.416 290.304l124.416 129.6zM431.277 340.693h103.68v311.040h-103.68v-311.040z" horiz-adv-x="896" />
<glyph unicode="&#xe627;" d="M102.41 152.918v-175.104h165.888l480.202 511.488-165.888 175.104-480.202-511.488zM875.099 622.933c17.462 18.432 17.462 46.080 0 64.512l-100.404 105.984c-17.462 18.432-43.654 18.432-61.118 0l-78.579-82.944 165.888-175.104 74.213 87.552zM495.303 69.973l-87.309-92.16h567.512v92.16h-480.202z" horiz-adv-x="1078" />
<glyph unicode="&#xe628;" d="M630.598-57.129l68.306 68.306-165.888 165.888-68.306-68.306 165.888-165.888zM167.087 547.873h170.768v-273.227l-263.47-263.47 68.306-68.306 292.744 292.744v312.26h170.768l-219.558 219.558-219.558-219.558z" horiz-adv-x="783" />
<glyph unicode="&#xe629;" d="M395.599 162.889c39.658 0 72.104 31.992 72.104 71.096s-32.447 71.096-72.104 71.096c-39.658 0-72.104-31.992-72.104-71.096s32.447-71.096 72.104-71.096v0zM611.914 482.816h-36.053v71.096c0 99.533-79.315 177.737-180.262 177.737s-180.262-78.204-180.262-177.737h68.5c0 60.43 50.473 110.197 111.762 110.197s111.762-49.766 111.762-110.197v-71.096h-328.076c-39.658 0-72.104-31.992-72.104-71.096v-355.474c0-39.102 32.447-71.096 72.104-71.096h432.629c39.658 0 72.104 31.992 72.104 71.096v355.474c0 39.102-32.447 71.096-72.104 71.096v0zM611.914 56.247h-432.629v355.474h432.629v-355.474z" horiz-adv-x="791" />
<glyph unicode="&#xe62a;" d="M802.304 731.648h-580.608c-45.619 0-82.944-37.324-82.944-82.944v-580.608c0-45.619 37.324-82.944 82.944-82.944h580.608c45.619 0 82.944 37.324 82.944 82.944v580.608c0 45.619-37.324 82.944-82.944 82.944v0zM387.584 151.040h-82.944v82.944h82.944v-82.944zM387.584 316.928h-82.944v82.944h82.944v-82.944zM387.584 482.816h-82.944v82.944h82.944v-82.944zM719.36 151.040h-290.304v82.944h290.304v-82.944zM719.36 316.928h-290.304v82.944h290.304v-82.944zM719.36 482.816h-290.304v82.944h290.304v-82.944z" />
<glyph unicode="&#xe62b;" d="M512 773.12c-228.096 0-414.72-186.624-414.72-414.72s186.624-414.72 414.72-414.72c228.096 0 414.72 186.624 414.72 414.72s-186.624 414.72-414.72 414.72v0zM553.473 151.040h-82.944v248.832h82.944v-248.832zM553.473 482.816h-82.944v82.944h82.944v-82.944z" />
<glyph unicode="&#xe62c;" d="M691.2 307.2h-40.96l-15.36 15.36c51.2 56.32 81.92 133.12 81.92 215.040 0 184.32-148.48 332.8-332.8 332.8s-332.8-148.48-332.8-332.8c0-184.32 148.48-332.8 332.8-332.8 81.92 0 158.72 30.72 215.040 81.92l15.36-15.36v-40.96l256-256 76.8 76.8-256 256zM384 307.2c-128 0-230.4 102.4-230.4 230.4s102.4 230.4 230.4 230.4c128 0 230.4-102.4 230.4-230.4s-102.4-230.4-230.4-230.4v0z" />
<glyph unicode="&#xe62d;" d="M176.077 679.962h167.962v167.962h-167.962v-167.962zM428.019 176.077h167.962v167.962h-167.962v-167.962zM176.077 176.077h167.962v167.962h-167.962v-167.962zM176.077 428.019h167.962v167.962h-167.962v-167.962zM428.019 428.019h167.962v167.962h-167.962v-167.962zM679.962 847.923v-167.962h167.962v167.962h-167.962zM428.019 679.962h167.962v167.962h-167.962v-167.962zM679.962 428.019h167.962v167.962h-167.962v-167.962zM679.962 176.077h167.962v167.962h-167.962v-167.962z" />
<glyph unicode="&#xe62e;" d="M174.505 885.248h663.552l-269.805-456.991v-269.621l-125.125 91.629v177.992l-268.623 456.991z" horiz-adv-x="1012" />
<glyph unicode="&#xe62f;" d="M370.564 720.272l107.495-107.495 47.029 47.029-154.525 154.525-154.525-154.525 47.029-47.029 107.495 107.495zM370.564 303.728l-107.495 107.495-47.030-47.029 154.525-154.525 154.525 154.525-47.029 47.029-107.495-107.495z" horiz-adv-x="760" />
<glyph unicode="&#xe630;" d="M97.28 175.104v-175.107h175.107l506.88 511.489-175.107 175.103-506.88-511.489zM912.897 645.12c18.432 18.432 18.432 46.079 0 64.511l-105.984 105.984c-18.432 18.432-46.081 18.432-64.511 0l-82.943-82.943 175.107-175.103 78.336 87.552z" />
<glyph unicode="&#xe631;" d="M763.154 468.366h-195.162v292.744h-292.744v-292.744h-195.162l341.534-341.534 341.534 341.534zM80.084 29.252v-97.582h683.069v97.582h-683.069z" horiz-adv-x="843" />
<glyph unicode="&#xe632;" d="M938.984 558.331l-324.502-357.615-324.502 357.615-98.761-108.839 423.263-466.454 423.263 466.454-98.761 108.839z" horiz-adv-x="1229" />
<glyph unicode="&#xe633;" d="M512 773.12c-228.096 0-414.72-186.624-414.72-414.72s186.624-414.72 414.72-414.72c228.096 0 414.72 186.624 414.72 414.72s-186.624 414.72-414.72 414.72v0zM180.224 358.4c0 182.477 149.299 331.776 331.776 331.776 74.65 0 145.152-24.883 203.213-70.502l-464.486-464.486c-45.619 58.061-70.502 128.563-70.502 203.213v0zM512 26.624c-74.65 0-145.152 24.883-203.213 70.502l464.486 464.486c45.619-58.061 70.502-128.563 70.502-203.213 0-182.477-149.299-331.776-331.776-331.776v0z" />
<glyph unicode="&#xe634;" d="M390.089 87.040c0-50.688 43.627-92.16 96.947-92.16h387.79c53.321 0 96.947 41.471 96.947 92.16v552.96h-581.684v-552.96zM1020.247 778.24h-169.659l-48.474 46.080h-242.369l-48.474-46.080h-169.658v-92.16h678.632v92.16z" horiz-adv-x="1299" />
<glyph unicode="&#xe635;" d="M175.076 57.777l51.304-52.907 117.268 120.932 117.268-120.932 51.305 52.907-168.573 173.84-168.573-173.84zM512.222 556.623l-51.305 52.907-117.268-120.932-117.268 120.932-51.304-52.907 168.573-173.84 168.573 173.84z" horiz-adv-x="707" />
<glyph unicode="&#xe636;" d="M885.248 656.998l-74.65 74.65-298.598-298.598-298.598 298.598-74.65-74.65 298.598-298.598-298.598-298.598 74.65-74.65 298.598 298.598 298.598-298.598 74.65 74.65-298.598 298.598 298.598 298.598z" />
<glyph unicode="&#xe637;" d="M611.805 773.12h-452.421c-41.472 0-75.404-33.932-75.404-75.404v-527.825h75.404v527.825h452.421v75.404zM724.911 622.312h-414.72c-41.472 0-75.404-33.932-75.404-75.404v-527.825c0-41.472 33.932-75.404 75.404-75.404h414.72c41.472 0 75.404 33.932 75.404 75.404v527.825c0 41.472-33.932 75.404-75.404 75.404v0zM724.911 19.084h-414.72v527.825h414.72v-527.825z" horiz-adv-x="884" />
<glyph unicode="&#xe638;" d="M448.791 132.403l-244.467 253.869-81.49-84.623 325.956-338.492 698.476 725.341-81.49 84.623-616.987-640.717z" horiz-adv-x="1293" />
<glyph unicode="&#xe639;" d="M323.071 445.952l-64.512-64.512 207.36-207.36 460.8 460.8-64.512 64.512-396.288-396.288-142.848 142.848zM834.56 35.84h-645.12v645.12h460.8v92.16h-460.8c-50.688 0-92.16-41.471-92.16-92.16v-645.12c0-50.688 41.471-92.16 92.16-92.16h645.12c50.688 0 92.16 41.471 92.16 92.16v368.64h-92.16v-368.64z" />
<glyph unicode="&#xe63a;" d="M834.56 732.16v-645.12h-645.12v645.12h645.12zM834.56 824.32h-645.12c-50.688 0-92.16-41.471-92.16-92.16v-645.12c0-50.688 41.471-92.16 92.16-92.16h645.12c50.688 0 92.16 41.471 92.16 92.16v645.12c0 50.688-41.471 92.16-92.16 92.16v0 0z" />
<glyph unicode="&#xe63b;" d="M379.326 159.704h-208.3v434.469h208.3v-434.469zM650.258 824.32h-208.3v-664.616h208.3v664.616zM921.188 399.724h-208.297v-240.020h208.297v240.020zM988.476 97.422h-884.736v-102.542h884.736v102.542z" horiz-adv-x="1092" />
<glyph unicode="&#xe63c;" d="M376.567 773.12l87.179-96.768-286.444-317.952 286.444-317.952-87.179-96.768-373.621 414.72 373.621 414.72z" horiz-adv-x="569" />
<glyph unicode="&#xe63d;" d="M435.162-56.32c45.619 0 82.944 37.325 82.944 82.944h-165.888c0-45.619 37.325-82.944 82.944-82.944v0zM704.73 192.512v228.096c0 128.563-87.091 232.243-207.36 261.274v29.030c0 33.178-29.030 62.208-62.208 62.208s-62.208-29.030-62.208-62.208v-29.030c-120.269-29.030-207.36-132.71-207.36-261.274v-228.096l-82.944-82.944v-41.472h705.024v41.472l-82.944 82.944zM621.786 151.040h-373.248v269.568c0 103.68 82.944 186.624 186.624 186.624s186.624-82.944 186.624-186.624v-269.568z" horiz-adv-x="870" />
<glyph unicode="&#xe63e;" d="M435.162-56.32c45.619 0 82.944 37.325 82.944 82.944h-165.888c0-45.619 37.325-82.944 82.944-82.944v0zM704.73 192.512v228.096c0 128.563-87.091 232.243-207.36 261.274v29.030c0 33.178-29.030 62.208-62.208 62.208s-62.208-29.030-62.208-62.208v-29.030c-120.269-29.030-207.36-132.71-207.36-261.274v-228.096l-82.944-82.944v-41.472h705.024v41.472l-82.944 82.944z" horiz-adv-x="870" />
<glyph unicode="&#xe63f;" d="M831.509 462.921c92.296 0 162.871 69.318 162.871 159.963s-70.578 159.963-162.871 159.963c-92.296 0-162.871-69.318-162.871-159.963s70.579-159.963 162.871-159.963v0zM397.182 462.921c92.296 0 162.871 69.318 162.871 159.963s-70.578 159.963-162.871 159.963c-92.296 0-162.871-69.318-162.871-159.963s70.578-159.963 162.871-159.963v0zM397.182 356.279c-124.868 0-380.034-63.986-380.034-186.624v-133.303h760.068v133.303c0 122.638-255.166 186.624-380.034 186.624v0zM831.509 356.279c-16.287 0-32.574 0-54.291-5.332 65.148-42.657 108.581-106.642 108.581-181.292v-133.303h325.743v133.303c0 122.638-255.166 186.624-380.034 186.624v0z" horiz-adv-x="1228" />
<glyph unicode="&#xe640;" d="M926.72 299.154h-355.474v-355.474h-118.491v355.474h-355.474v118.491h355.474v355.474h118.491v-355.474h355.474v-118.491z" />
<glyph unicode="&#xe641;" d="M977.762 683.571c0 46.996-38.88 85.446-86.4 85.446l-412.8-1.018v-153.6h-115.2v-144.444l-153.6-2.757v-381.752c0-46.802 29.28-85.446 76.8-85.446h604.8c47.52 0 86.4 38.451 86.4 85.446v598.126zM324.962 166.881c0 103.362 188.267 160.211 282.4 160.211s282.4-56.849 282.4-160.211v-51.681h-564.8v51.681zM748.962 548.62c0-76.856-61.014-135.629-140.8-135.629s-140.8 58.773-140.8 135.629c0 76.856 61.014 135.629 140.8 135.629s140.8-58.773 140.8-135.629v0zM310.562 921.6h-86.4v-128.17h-129.6v-85.446h129.6v-128.17h86.4v128.17h129.6v85.446h-129.6v128.17z" horiz-adv-x="1186" />
<glyph unicode="&#xe642;" d="M1010.916 762.311c0 45.056-35.188 81.92-78.196 81.92h-347.084l-4.801-163.84h-117.296v-122.88l-156.393-2.643v-365.997c0-45.056 35.188-81.92 78.196-81.92h547.374c43.008 0 78.196 36.864 78.196 81.92v573.44zM150.756 25.031c0-45.056 35.188-81.92 78.196-81.92h625.571v81.92h-625.571v655.36h-78.196v-655.36zM522.189 414.151l97.746-122.88 136.844 184.32 175.942-245.76h-547.374l136.844 184.32zM385.344 844.231v122.88h-78.196v-122.88h-117.296v-81.92h117.296v-122.88h78.196v122.88h117.296v81.92h-117.296z" horiz-adv-x="1167" />
<glyph unicode="&#xe643;" d="M783.847 830.344l-410.299-239.34v-483.9l410.299-234.122 410.299 234.122v481.291l-410.299 241.951zM1078.893 565.234l-294.864-168.248-293.627 171.284 293.262 171.073 295.229-174.11zM821.146-15.293v343.020l298.399 170.273v-343.059l-298.399-170.234zM259.577 830.344v136.767h-91.178v-136.767h-136.767v-91.177h136.767v-136.767h91.178v136.767h136.767v91.177h-136.767z" horiz-adv-x="1530" />
<glyph unicode="&#xe644;" d="M826.009 368.64c100.777 0 183.23 83.981 183.23 186.624s-82.454 186.624-183.231 186.624c-100.777 0-183.231-83.981-183.231-186.624s82.453-186.624 183.231-186.624v0zM413.74 461.952v139.968h-91.614v-139.968h-137.423v-93.312h137.423v-139.968h91.614v139.968h137.423v93.312h-137.423zM826.009 275.328c-123.681 0-366.462-60.653-366.462-186.624v-93.312h732.924v93.312c0 125.971-242.781 186.624-366.462 186.624v0z" horiz-adv-x="1484" />
<glyph unicode="&#xe645;" d="M972.8 753.371c0 48.274-39.497 87.772-87.772 87.772h-389.583l-5.389-175.543h-131.657v-131.657l-175.543-2.831v-392.14c0-48.274 39.497-87.772 87.772-87.772h614.4c48.274 0 87.772 39.497 87.772 87.772v614.4zM424.228 380.343l109.714-131.657 153.6 197.486 197.486-263.314h-614.4l153.6 197.486zM270.629 841.143v131.657h-87.772v-131.657h-131.657v-87.772h131.657v-131.657h87.772v131.657h131.657v87.772h-131.657z" horiz-adv-x="1126" />
<glyph unicode="&#xe646;" d="M192.433 773.12l-87.179-96.768 286.444-317.952-286.444-317.952 87.179-96.768 373.621 414.72-373.621 414.72z" horiz-adv-x="569" />
</font>
</defs>
</svg>
