<?xml version="1.0" encoding="utf-8"?>
<!-- Generator: Adobe Illustrator 18.1.1, SVG Export Plug-In . SVG Version: 6.00 Build 0)  -->
<!DOCTYPE svg PUBLIC "-//W3C//DTD SVG 1.1//EN" "http://www.w3.org/Graphics/SVG/1.1/DTD/svg11.dtd">
<svg version="1.1" id="Livello_2" xmlns="http://www.w3.org/2000/svg" xmlns:xlink="http://www.w3.org/1999/xlink" x="0px" y="0px"
	 viewBox="320.9 272.6 200 50" enable-background="new 320.9 272.6 200 50" xml:space="preserve">
<path fill="#FF5312" d="M338.2,278.6c0.2,0,0.4,0,0.6,0c2,0.2,3.7,1,4.9,2.7c0.7,0.9,1.1,2,1.2,3.1c0.1,1.6-0.2,3.1-1.3,4.4
	c-0.9,1.1-2,1.7-3.3,1.9c-1.3,0.2-2.6-0.1-3.7-0.9c-1-0.7-1.6-1.7-1.8-3c-0.1-0.9,0-1.8,0.5-2.6c0.3-0.5,0.9-0.6,1.4-0.3
	c0.3,0.3,0.4,0.7,0.2,1.1c-0.2,0.4-0.3,0.8-0.3,1.2c0,1,0.4,1.7,1.3,2.2c1.7,1,3.9,0.3,4.8-1.6c1-2.2,0.1-4.9-2.2-6
	c-0.9-0.4-1.9-0.7-2.9-0.6c-2.1,0.1-3.7,1.2-4.8,3c-0.7,1.2-1,2.4-1.2,3.7c-0.2,1.9,0.2,3.7,1.2,5.4c0.7,1.4,1.7,2.5,2.9,3.5
	c0.8,0.7,1.6,1.3,2.6,1.9c0.4,0.3,0.6,0.8,0.3,1.2c-0.3,0.4-0.8,0.6-1.2,0.3c-2.4-1.4-4.3-3.2-5.8-5.6c-0.8-1.3-1.3-2.6-1.6-4
	c-0.1-0.9-0.2-1.7-0.1-2.5c0.1-1.6,0.6-3.2,1.3-4.6c1.2-2.1,2.9-3.4,5.3-4c0.4-0.1,0.8-0.1,1.2-0.1c0,0,0.1,0,0.1,0
	C337.9,278.6,338,278.6,338.2,278.6z M324.6,298.4c3.1,1.7,6.2,3.3,9.3,4.8c0.4,0.2,0.9,0.4,1.3,0.6c0.3,0.1,0.6,0.1,0.9-0.1
	c0.3-0.2,0.4-0.5,0.3-0.9c0-0.3-0.3-0.5-0.6-0.7c-3-1.4-5.8-2.9-8.7-4.4c-0.6-0.3-1.2-0.7-1.8-1c-0.6-0.3-1.3,0.1-1.3,0.8
	C324,298,324.2,298.3,324.6,298.4z M325.9,295.3c1.4,0.9,2.9,1.9,4.3,2.8c1.9,1.2,3.8,2.4,5.8,3.5c0.2,0.1,0.4,0.2,0.7,0.1
	c0.4-0.1,0.6-0.4,0.7-0.7c0-0.4-0.1-0.7-0.5-0.9c-2.7-1.6-5.3-3.2-7.9-4.8c-0.7-0.5-1.4-0.9-2.2-1.4c-0.3-0.2-0.6-0.2-0.9,0
	c-0.3,0.1-0.4,0.4-0.5,0.7C325.5,294.9,325.6,295.1,325.9,295.3z M335,304.6c-3-1.2-6.1-2.4-9-3.7c-0.6-0.3-1.3-0.6-1.9-0.9
	c-0.3-0.1-0.7-0.1-1,0.1c-0.3,0.2-0.4,0.6-0.3,0.9c0.1,0.3,0.3,0.5,0.6,0.7c2.8,1.3,5.6,2.5,8.4,3.6c0.9,0.3,1.7,0.7,2.5,1
	c0.6,0.2,1.2-0.2,1.2-0.8C335.7,305,335.5,304.8,335,304.6z M334.5,306.9c-1.1-0.3-2.2-0.7-3.3-1c-2.7-0.8-5.3-1.7-7.9-2.7
	c-0.2-0.1-0.4-0.1-0.6,0c-0.4,0.1-0.7,0.4-0.7,0.9c0,0.4,0.2,0.7,0.6,0.9c3,1.1,6.1,2.1,9.2,3c0.7,0.2,1.5,0.5,2.3,0.7
	c0.6,0.1,1.1-0.3,1.1-0.9C335.1,307.4,334.9,307,334.5,306.9z M334,309.3c-1.9-0.4-3.7-0.8-5.6-1.3c-2-0.5-4-1-5.9-1.5
	c-0.4-0.1-0.7,0-0.9,0.3c-0.4,0.5-0.2,1.3,0.5,1.5c3.8,1,7.7,2,11.6,2.8c0.6,0.1,1.1-0.3,1.1-0.9C334.7,309.7,334.5,309.4,334,309.3
	z M320.9,310.7c0,0.4,0.2,0.9,0.7,0.9c0.5,0.1,1.1,0.2,1.6,0.3c1,0.1,1.9,0.3,2.8,0.5c0.8,0.1,1.6,0.3,2.5,0.4
	c0.9,0.1,1.8,0.3,2.7,0.4c0.8,0.1,1.6,0.2,2.3,0.3c0.5,0,0.9-0.3,1-0.7c0.1-0.5-0.2-1-0.7-1c-0.3,0-0.5-0.1-0.7-0.1
	c-0.7-0.1-1.4-0.2-2.2-0.3c-0.9-0.1-1.7-0.3-2.6-0.4c-0.9-0.1-1.8-0.3-2.7-0.4c-1-0.1-1.9-0.3-2.9-0.5c-0.3,0-0.5-0.1-0.7-0.1
	C321.4,309.9,321,310.2,320.9,310.7z"/>
<path opacity="0.5" fill="#FFFFFF" enable-background="new    " d="M409.2,292.9h-3.5v5.4h-5.6v-5.4h-3.5v13.8h3.5v-5.5h5.6v5.5h3.5
	V292.9 M381.4,292.9h-12.3v3h4.4v10.9h3.5v-10.9h4.4L381.4,292.9 M367.1,292.9h-3.5v13.8h3.5V292.9 M355.5,292.9c0,0-5.1,0-5.1,0
	v13.8h3.5v-4l1.3,0c4,0,6.2-1.7,6.2-5C361.4,294.9,359.4,292.9,355.5,292.9 M353.8,300v-4.3c0,0,1.1,0,1.4,0c1.7,0,2.7,0.7,2.7,2.1
	c0,1.4-0.9,2.2-2.7,2.2L353.8,300 M390,292.6c-4.5,0-7.5,2.8-7.5,7.3c0,4.6,2.9,7.2,7.3,7.2c1.6,0,3.4-0.4,4.5-1l-0.7-3.1
	c-1,0.7-2.3,1.1-3.7,1.1c-2.5,0-4-1.7-4-4.3c0-2.6,1.6-4.2,3.9-4.2c1.2,0,2.4,0.4,3.5,1l1-3C393.3,293,391.6,292.6,390,292.6"/>
<path fill="#FFFFFF" d="M419,295.8v10.9h-3.5v-10.9h-4.4v-3h12.3v3L419,295.8L419,295.8z M436.7,306.7h-3.5l-1-3H427l-1,3h-3.5
	l4.9-13.8h4.4L436.7,306.7z M429.6,295.6l-1.8,5.4h3.6L429.6,295.6z M441.7,306.7h-3.5v-13.8c0,0,5.7,0,5.6,0c3.7,0,5.6,1.7,5.6,4.4
	c0,1.9-1,3.3-2.8,4l3.5,5.5h-4l-2.8-4.6l-1.6,0.1L441.7,306.7L441.7,306.7L441.7,306.7z M443.4,299.6c1.5-0.1,2.3-0.7,2.3-2.1
	c0-1.2-0.9-1.8-2.6-1.8c-0.1,0-1.5,0-1.5,0v3.9L443.4,299.6z M458.4,307.1c-4.4,0-7.4-2.6-7.4-7.2c0-4.5,2.9-7.3,7.5-7.3
	c1.7,0,3.8,0.4,5.2,1.2l-1.1,3c-1.3-0.7-2.7-1.2-4-1.2c-2.5,0-4.1,1.7-4.1,4.2c0,2.8,1.4,4.4,4,4.4c0.8,0,1.6-0.2,2.2-0.4v-2h-3.4
	V299h6.6v6.8C462.4,306.6,460.4,307.1,458.4,307.1z M466.4,306.7v-13.8h10.1v2.8h-6.6v2.6h5.3v2.8h-5.3v2.7h6.6v2.8H466.4
	L466.4,306.7z M485.9,295.8v10.9h-3.5v-10.9H478v-3h12.3v3L485.9,295.8L485.9,295.8z"/>
<g>
	<path fill="#FFFFFF" d="M500.5,303.8c0,1.7-1.1,2.8-3.6,2.8h-3.3v-10.1h3.2c2.4,0,3.5,1.1,3.5,2.6c0,1-0.6,2-1.9,2.3
		C499.7,301.8,500.5,302.7,500.5,303.8z M496.8,297.5h-2.2v3.6h2c1.5,0,2.5-0.6,2.5-1.8C499.2,298.2,498.4,297.5,496.8,297.5z
		 M496.7,302.1h-2.1v3.6h2.3c1.8,0,2.5-0.7,2.5-1.9S498.5,302.1,496.7,302.1z"/>
	<path fill="#FFFFFF" d="M502.9,303.1c0,1.7,1,2.9,2.6,2.9c0.8,0,1.6-0.2,2.2-0.6l0.2,0.9c-0.6,0.4-1.5,0.6-2.4,0.6
		c-2.1,0-3.6-1.6-3.6-3.9c0-2.3,1.5-4,3.5-4c1.6,0,2.7,1.1,2.7,2.7c0,0.4,0,0.9-0.2,1.2L502.9,303.1L502.9,303.1L502.9,303.1z
		 M507.1,302.2c0-0.1,0-0.2,0-0.3c0-1.2-0.6-1.9-1.8-1.9c-1.3,0-2.2,1-2.3,2.3L507.1,302.2z"/>
	<path fill="#FFFFFF" d="M512,306.9c-1.4,0-2-0.8-2-2.3l0.1-4.4l-1.2,0l0-0.6l1.1-0.3l0-1.7h1l0,1.7h2.5l0,0.9h-2.4l-0.1,4.4
		c0,0.9,0.3,1.4,1.1,1.4c0.5,0,1-0.2,1.4-0.4l0.2,0.9C513.1,306.8,512.5,306.9,512,306.9z"/>
	<path fill="#FFFFFF" d="M519.2,305.8c-0.5,0.6-1.3,1.1-2.2,1.1c-1.4,0-2.3-0.9-2.3-2.1c0-1.3,1.1-2.4,4.5-2.6c0,0,0-0.4,0-0.4
		c0-1.2-0.5-1.7-1.7-1.7c-0.8,0-1.8,0.4-2.4,0.9l-0.2-0.9c0.6-0.5,1.8-0.9,2.8-0.9c1.7,0,2.7,0.8,2.7,2.7c0,0,0,3.5,0,3.5
		c0,0.6,0.1,0.8,0.7,0.7l0,0.8C519.9,306.9,519.4,306.6,519.2,305.8L519.2,305.8L519.2,305.8z M519.1,302.8
		c-2.5,0.3-3.5,0.9-3.5,1.8c0,0.8,0.6,1.3,1.5,1.3c0.8,0,1.5-0.5,1.9-1V302.8z"/>
</g>
</svg>
