<?xml version="1.0" encoding="utf-8"?>
<!-- Generator: Adobe Illustrator 19.1.0, SVG Export Plug-In . SVG Version: 6.00 Build 0)  -->
<!DOCTYPE svg PUBLIC "-//W3C//DTD SVG 1.1//EN" "http://www.w3.org/Graphics/SVG/1.1/DTD/svg11.dtd">
<svg version="1.1" id="Livello_2" xmlns="http://www.w3.org/2000/svg" xmlns:xlink="http://www.w3.org/1999/xlink" x="0px" y="0px"
	 viewBox="-199 226 168.7 35.1" style="enable-background:new -199 226 168.7 35.1;" xml:space="preserve">
<style type="text/css">
	.st0{fill:#FF5312;}
	.st1{opacity:0.5;fill:#FFFFFF;enable-background:new    ;}
	.st2{fill:#FFFFFF;}
</style>
<path class="st0" d="M-181.7,226.2c0.2,0,0.4,0,0.6,0c2,0.2,3.7,1,4.9,2.7c0.7,0.9,1.1,2,1.2,3.1c0.1,1.6-0.2,3.1-1.3,4.4
	c-0.9,1.1-2,1.7-3.3,1.9c-1.3,0.2-2.6-0.1-3.7-0.9c-1-0.7-1.6-1.7-1.8-3c-0.1-0.9,0-1.8,0.5-2.6c0.3-0.5,0.9-0.6,1.4-0.3
	c0.3,0.3,0.4,0.7,0.2,1.1c-0.2,0.4-0.3,0.8-0.3,1.2c0,1,0.4,1.7,1.3,2.2c1.7,1,3.9,0.3,4.8-1.6c1-2.2,0.1-4.9-2.2-6
	c-0.9-0.4-1.9-0.7-2.9-0.6c-2.1,0.1-3.7,1.2-4.8,3c-0.7,1.2-1,2.4-1.2,3.7c-0.2,1.9,0.2,3.7,1.2,5.4c0.7,1.4,1.7,2.5,2.9,3.5
	c0.8,0.7,1.6,1.3,2.6,1.9c0.4,0.3,0.6,0.8,0.3,1.2c-0.3,0.4-0.8,0.6-1.2,0.3c-2.4-1.4-4.3-3.2-5.8-5.6c-0.8-1.3-1.3-2.6-1.6-4
	c-0.1-0.9-0.2-1.7-0.1-2.5c0.1-1.6,0.6-3.2,1.3-4.6c1.2-2.1,2.9-3.4,5.3-4c0.4-0.1,0.8-0.1,1.2-0.1h0.1
	C-182,226.2-181.9,226.2-181.7,226.2z M-195.3,246c3.1,1.7,6.2,3.3,9.3,4.8c0.4,0.2,0.9,0.4,1.3,0.6c0.3,0.1,0.6,0.1,0.9-0.1
	s0.4-0.5,0.3-0.9c0-0.3-0.3-0.5-0.6-0.7c-3-1.4-5.8-2.9-8.7-4.4c-0.6-0.3-1.2-0.7-1.8-1c-0.6-0.3-1.3,0.1-1.3,0.8
	C-195.9,245.6-195.7,245.9-195.3,246z M-194,242.9c1.4,0.9,2.9,1.9,4.3,2.8c1.9,1.2,3.8,2.4,5.8,3.5c0.2,0.1,0.4,0.2,0.7,0.1
	c0.4-0.1,0.6-0.4,0.7-0.7c0-0.4-0.1-0.7-0.5-0.9c-2.7-1.6-5.3-3.2-7.9-4.8c-0.7-0.5-1.4-0.9-2.2-1.4c-0.3-0.2-0.6-0.2-0.9,0
	c-0.3,0.1-0.4,0.4-0.5,0.7C-194.4,242.5-194.3,242.7-194,242.9z M-184.9,252.2c-3-1.2-6.1-2.4-9-3.7c-0.6-0.3-1.3-0.6-1.9-0.9
	c-0.3-0.1-0.7-0.1-1,0.1s-0.4,0.6-0.3,0.9s0.3,0.5,0.6,0.7c2.8,1.3,5.6,2.5,8.4,3.6c0.9,0.3,1.7,0.7,2.5,1c0.6,0.2,1.2-0.2,1.2-0.8
	C-184.2,252.6-184.4,252.4-184.9,252.2z M-185.4,254.5c-1.1-0.3-2.2-0.7-3.3-1c-2.7-0.8-5.3-1.7-7.9-2.7c-0.2-0.1-0.4-0.1-0.6,0
	c-0.4,0.1-0.7,0.4-0.7,0.9c0,0.4,0.2,0.7,0.6,0.9c3,1.1,6.1,2.1,9.2,3c0.7,0.2,1.5,0.5,2.3,0.7c0.6,0.1,1.1-0.3,1.1-0.9
	C-184.8,255-185,254.6-185.4,254.5z M-185.9,256.9c-1.9-0.4-3.7-0.8-5.6-1.3c-2-0.5-4-1-5.9-1.5c-0.4-0.1-0.7,0-0.9,0.3
	c-0.4,0.5-0.2,1.3,0.5,1.5c3.8,1,7.7,2,11.6,2.8c0.6,0.1,1.1-0.3,1.1-0.9C-185.2,257.3-185.4,257-185.9,256.9z M-199,258.3
	c0,0.4,0.2,0.9,0.7,0.9c0.5,0.1,1.1,0.2,1.6,0.3c1,0.1,1.9,0.3,2.8,0.5c0.8,0.1,1.6,0.3,2.5,0.4s1.8,0.3,2.7,0.4
	c0.8,0.1,1.6,0.2,2.3,0.3c0.5,0,0.9-0.3,1-0.7c0.1-0.5-0.2-1-0.7-1c-0.3,0-0.5-0.1-0.7-0.1c-0.7-0.1-1.4-0.2-2.2-0.3
	c-0.9-0.1-1.7-0.3-2.6-0.4s-1.8-0.3-2.7-0.4c-1-0.1-1.9-0.3-2.9-0.5c-0.3,0-0.5-0.1-0.7-0.1C-198.5,257.5-198.9,257.8-199,258.3z"/>
<path class="st1" d="M-110.7,240.5h-3.5v5.4h-5.6v-5.4h-3.5v13.8h3.5v-5.5h5.6v5.5h3.5V240.5 M-138.5,240.5h-12.3v3h4.4v10.9h3.5
	v-10.9h4.4V240.5 M-152.8,240.5h-3.5v13.8h3.5V240.5 M-164.4,240.5h-5.1v13.8h3.5v-4h1.3c4,0,6.2-1.7,6.2-5
	C-158.5,242.5-160.5,240.5-164.4,240.5 M-166.1,247.6v-4.3c0,0,1.1,0,1.4,0c1.7,0,2.7,0.7,2.7,2.1s-0.9,2.2-2.7,2.2L-166.1,247.6
	 M-129.9,240.2c-4.5,0-7.5,2.8-7.5,7.3c0,4.6,2.9,7.2,7.3,7.2c1.6,0,3.4-0.4,4.5-1l-0.7-3.1c-1,0.7-2.3,1.1-3.7,1.1
	c-2.5,0-4-1.7-4-4.3c0-2.6,1.6-4.2,3.9-4.2c1.2,0,2.4,0.4,3.5,1l1-3C-126.6,240.6-128.3,240.2-129.9,240.2"/>
<path class="st2" d="M-100.9,243.4v10.9h-3.5v-10.9h-4.4v-3h12.3v3H-100.9L-100.9,243.4z M-83.2,254.3h-3.5l-1-3h-5.2l-1,3h-3.5
	l4.9-13.8h4.4L-83.2,254.3z M-90.3,243.2l-1.8,5.4h3.6L-90.3,243.2z M-78.2,254.3h-3.5v-13.8c0,0,5.7,0,5.6,0c3.7,0,5.6,1.7,5.6,4.4
	c0,1.9-1,3.3-2.8,4l3.5,5.5h-4l-2.8-4.6l-1.6,0.1L-78.2,254.3L-78.2,254.3L-78.2,254.3z M-76.5,247.2c1.5-0.1,2.3-0.7,2.3-2.1
	c0-1.2-0.9-1.8-2.6-1.8c-0.1,0-1.5,0-1.5,0v3.9H-76.5z M-61.5,254.7c-4.4,0-7.4-2.6-7.4-7.2c0-4.5,2.9-7.3,7.5-7.3
	c1.7,0,3.8,0.4,5.2,1.2l-1.1,3c-1.3-0.7-2.7-1.2-4-1.2c-2.5,0-4.1,1.7-4.1,4.2c0,2.8,1.4,4.4,4,4.4c0.8,0,1.6-0.2,2.2-0.4v-2h-3.4
	v-2.8h6.6v6.8C-57.5,254.2-59.5,254.7-61.5,254.7z M-53.5,254.3v-13.8h10.1v2.8H-50v2.6h5.3v2.8H-50v2.7h6.6v2.8h-10.1V254.3z
	 M-34,243.4v10.9h-3.5v-10.9h-4.4v-3h12.3v3H-34L-34,243.4z"/>
</svg>
